<?xml version="1.0" encoding="utf-8"?>
<svg viewBox="153.467 88.544 76.373 65.462" xmlns="http://www.w3.org/2000/svg">
  <g id="g-1" transform="matrix(-1.0488489866256714, 0, 0, 1.0654560327529907, 228.83990478515625, 87.94581604003906)" style="">
    <path
      d="M30,1.5c-16.542,0-30,12.112-30,27c0,5.205,1.647,10.246,4.768,14.604c-0.591,6.537-2.175,11.39-4.475,13.689 c-0.304,0.304-0.38,0.769-0.188,1.153C0.276,58.289,0.625,58.5,1,58.5c0.046,0,0.093-0.003,0.14-0.01 c0.405-0.057,9.813-1.412,16.617-5.338C21.622,54.711,25.738,55.5,30,55.5c16.542,0,30-12.112,30-27S46.542,1.5,30,1.5z"
      stroke="currentColor"
      stroke-width="4px"
      fill="white"
    />
  </g>
  <g id="SVGRepo_bgCarrier" stroke-width="0" transform="matrix(1, 0, 0, 1, 208.8466033935547, 141.5)"/>
  <g id="SVGRepo_tracerCarrier" stroke-linecap="round" stroke-linejoin="round" transform="matrix(1, 0, 0, 1, 208.8466033935547, 141.5)"/>
  <g id="SVGRepo_iconCarrier" transform="matrix(1.0488489866256714, 0, 0, 1.0654560327529907, 154.46707153320312, 91.67681884765625)" style="">
    <path
      d="M30,1.5c-16.542,0-30,12.112-30,27c0,5.205,1.647,10.246,4.768,14.604c-0.591,6.537-2.175,11.39-4.475,13.689 c-0.304,0.304-0.38,0.769-0.188,1.153C0.276,58.289,0.625,58.5,1,58.5c0.046,0,0.093-0.003,0.14-0.01 c0.405-0.057,9.813-1.412,16.617-5.338C21.622,54.711,25.738,55.5,30,55.5c16.542,0,30-12.112,30-27S46.542,1.5,30,1.5z"
      stroke="currentColor"
      stroke-width="4px"
      fill="white"
    />
  </g>
  <line stroke="currentColor" stroke-width="2px" x1="171.63" y1="115.661" x2="202.643" y2="115.661"/>
  <line stroke="currentColor" stroke-width="2px" x1="171.63" y1="123.123" x2="202.643" y2="123.123"/>
  <line stroke="currentColor" stroke-width="2px" x1="172.07" y1="130.585" x2="203.083" y2="130.585"/>
</svg>
