<svg width="16" height="16" viewBox="0 0 16 16" fill="none" xmlns="http://www.w3.org/2000/svg">
<path d="M4.27324 0.507812C2.21102 0.507812 0.53125 2.18758 0.53125 4.25003V8.7973C0.53125 10.6434 1.88055 12.1734 3.64229 12.4757L3.61725 14.8609C3.61605 14.9787 3.64816 15.0944 3.70988 15.1947C3.7716 15.2951 3.86042 15.3759 3.96609 15.428C4.07177 15.48 4.19 15.5011 4.30715 15.4889C4.42431 15.4767 4.53563 15.4316 4.62828 15.3588L8.2153 12.5395H11.7248C13.7871 12.5395 15.4666 10.8595 15.4666 8.7973V4.25003C15.4666 2.18782 13.7871 0.507812 11.7248 0.507812H4.27324ZM4.27324 1.75813H11.7248C13.1162 1.75813 14.217 2.85845 14.217 4.25003V8.7973C14.217 10.1886 13.1162 11.2894 11.7248 11.2894H7.99892C7.85887 11.2894 7.72285 11.3364 7.6127 11.4229L4.8808 13.5706L4.89781 11.9206C4.89862 11.8381 4.88307 11.7562 4.85205 11.6797C4.82103 11.6031 4.77516 11.5335 4.71709 11.4748C4.65902 11.4162 4.58989 11.3696 4.51371 11.3377C4.43753 11.3059 4.3558 11.2895 4.27324 11.2894C2.88189 11.2894 1.7811 10.1886 1.7811 8.7973V4.25003C1.7811 2.85869 2.88189 1.7579 4.27324 1.7579V1.75813ZM4.38308 4.23798C4.21728 4.23798 4.05827 4.30385 3.94103 4.42109C3.82378 4.53833 3.75792 4.69735 3.75792 4.86315C3.75792 5.02895 3.82378 5.18796 3.94103 5.3052C4.05827 5.42244 4.21728 5.48831 4.38308 5.48831H11.615C11.7808 5.48831 11.9398 5.42244 12.0571 5.3052C12.1743 5.18796 12.2402 5.02895 12.2402 4.86315C12.2402 4.69735 12.1743 4.53833 12.0571 4.42109C11.9398 4.30385 11.7808 4.23798 11.615 4.23798H4.38308ZM4.38308 7.09509C4.29999 7.09347 4.21742 7.10844 4.14018 7.13912C4.06295 7.1698 3.99261 7.21557 3.93327 7.27376C3.87394 7.33195 3.82681 7.40139 3.79463 7.47801C3.76246 7.55464 3.74589 7.6369 3.74589 7.72001C3.74589 7.80311 3.76246 7.88539 3.79463 7.96201C3.82681 8.03863 3.87394 8.10807 3.93327 8.16626C3.99261 8.22445 4.06295 8.27022 4.14018 8.3009C4.21742 8.33158 4.29999 8.34655 4.38308 8.34493H11.615C11.6985 8.34723 11.7816 8.33277 11.8594 8.3024C11.9372 8.27204 12.0082 8.22638 12.068 8.16814C12.1279 8.10989 12.1755 8.04024 12.208 7.96329C12.2405 7.88634 12.2572 7.80366 12.2572 7.72013C12.2572 7.6366 12.2405 7.55392 12.208 7.47697C12.1755 7.40003 12.1279 7.33037 12.068 7.27213C12.0082 7.21388 11.9372 7.16823 11.8594 7.13786C11.7816 7.10749 11.6985 7.09302 11.615 7.09532L4.38308 7.09509Z" fill="black"/>
</svg>
