<?xml version="1.0" encoding="utf-8"?>
<svg viewBox="0 0 39.78 48.823" xmlns="http://www.w3.org/2000/svg">
  <path fill-rule="evenodd" clip-rule="evenodd" d="M 0.001 20.065 C 0.001 31.147 8.906 40.131 19.891 40.131 L 19.891 48.823 L 33.67 34.536 C 37.436 30.884 39.78 25.751 39.78 20.066 C 39.78 8.984 30.875 0 19.89 0 C 8.905 0 0 8.983 0 20.066 M 35.198 13.507 C 35.656 14.341 35.965 15.27 36.086 16.257 C 36.368 17.48 36.517 18.755 36.517 20.066 C 36.517 21.683 36.289 23.27 35.85 24.786 C 35.032 27.606 33.492 30.15 31.387 32.184 C 28.555 34.919 25.954 37.816 23.157 40.716 L 27.351 36.369 L 23.154 40.72 L 23.154 36.839 L 19.891 36.839 C 18.119 36.839 16.413 36.56 14.812 36.042 C 10.578 34.673 7.083 31.639 5.084 27.704 C 3.921 25.413 3.264 22.817 3.264 20.065 C 3.264 18.755 3.413 17.48 3.694 16.257 C 3.815 15.269 4.124 14.339 4.583 13.505 C 5.879 11.148 8.368 9.554 11.228 9.554 C 15.421 9.554 18.82 12.983 18.82 17.214 C 18.82 19.193 18.076 20.997 16.855 22.357 C 18.327 23.36 19.432 24.871 19.924 26.64 C 20.41 24.887 21.5 23.388 22.952 22.384 C 21.715 21.022 20.961 19.207 20.961 17.214 C 20.961 12.983 24.36 9.554 28.553 9.554 C 31.413 9.554 33.904 11.149 35.199 13.506 L 35.198 13.507 Z" fill="#9D174D" transform="matrix(1, 0, 0, 1, 0, 1.7763568394002505e-15)"/>
  <path fill-rule="evenodd" clip-rule="evenodd" d="M 11.229 12.951 C 13.562 12.951 15.455 14.859 15.455 17.214 C 15.455 19.569 13.562 21.477 11.229 21.477 C 8.895 21.477 7.003 19.568 7.003 17.214 L 11.229 17.214 L 11.229 12.951 Z" fill="#9D174D" transform="matrix(1, 0, 0, 1, 0, 1.7763568394002505e-15)"/>
  <path fill-rule="evenodd" clip-rule="evenodd" d="M 28.553 12.951 C 30.887 12.951 32.779 14.859 32.779 17.214 C 32.779 19.569 30.888 21.477 28.553 21.477 C 26.219 21.477 24.328 19.568 24.328 17.214 L 28.553 17.214 L 28.553 12.951 Z" fill="#9D174D" transform="matrix(1, 0, 0, 1, 0, 1.7763568394002505e-15)"/>
</svg>