<svg width="50" height="60" viewBox="0 0 50 60" fill="none" xmlns="http://www.w3.org/2000/svg">
<path fill-rule="evenodd" clip-rule="evenodd" d="M25.5215 5.93914C29.4343 4.40289 27.8606 -0.357062 24.6751 0.021337C21.325 0.450982 21.3036 4.96683 24.3586 5.93914C24.3928 6.5497 24.3816 7.15702 24.3704 7.76599C24.3664 7.98097 24.3624 8.19616 24.3604 8.41177L24.3586 11.6629L20.5398 11.6567C15.9714 11.6492 13.8113 12.215 12.2398 16.7471C6.72735 17.243 7.24761 25.2068 12.4159 25.0162C13.356 28.3166 16.15 29.9 19.3316 29.9242V32.7494L12.5257 32.7466C12.1763 32.7464 11.8181 32.7385 11.4559 32.7305C10.2477 32.7038 8.99205 32.676 7.8489 32.9294C4.22131 33.7336 1.29879 36.5331 0.37833 40.2407C-0.0601406 42.0068 -0.0148818 44.708 0.0225615 46.9427C0.0321197 47.5132 0.0411686 48.0533 0.0415317 48.5397L0.0366207 58.3618C0.0481497 60.1345 0.886977 60.0643 2.25181 59.95C2.63084 59.9183 3.05047 59.8831 3.50418 59.8831L46.2713 59.884C46.7124 59.8841 47.1021 59.8891 47.4463 59.8936C48.7701 59.9108 49.4209 59.9193 49.7319 59.5984C50.0327 59.2882 50.0158 58.67 49.9826 57.4541C49.9702 57.0018 49.9556 56.4668 49.9542 55.8342L49.9538 44.9483C49.9536 39.5077 48.7985 34.6304 42.6872 33.0772C41.3579 32.7392 40.0326 32.7423 38.6802 32.7454C38.5752 32.7456 38.4701 32.7459 38.3648 32.746L33.1291 32.7526C32.8543 32.753 32.575 32.7595 32.2944 32.7661C31.6939 32.7801 31.0868 32.7943 30.5017 32.7494V29.9242C34.6669 29.8203 36.3552 28.9235 37.957 25.0162C43.7001 25.1213 43.1106 17.2142 37.957 17.2142C37.362 15.1049 36.4366 13.4247 34.506 12.3438C32.8638 11.4239 28.282 11.5732 25.9161 11.6503C25.7769 11.6548 25.6443 11.6591 25.5215 11.6629V5.93914ZM10.1817 58.7376V33.8926H15.6114C16.2026 34.7001 16.7199 35.6039 17.2309 36.4966C17.457 36.8917 17.6819 37.2846 17.9114 37.6661C19.2593 39.9058 19.4058 39.7774 20.7418 38.6069C20.9686 38.4082 21.2297 38.1794 21.5368 37.9271C21.9002 38.4533 22.2549 38.9852 22.6098 39.5174L22.7233 39.6875C22.0661 42.4293 21.5224 45.2033 20.9796 47.9726C20.8714 48.5247 20.7627 49.0795 20.6536 49.6312L19.6111 54.6585C19.9626 55.1173 20.398 55.5497 20.8344 55.9831C21.1845 56.3309 21.5354 56.6794 21.8444 57.0429C22.2212 57.476 22.6134 57.9065 23.0001 58.331C23.1231 58.4661 23.2473 58.6024 23.3699 58.7376C21.8952 58.7379 20.4185 58.7281 18.9414 58.7184C16.0203 58.6992 13.0968 58.6799 10.1817 58.7376ZM29.1036 56.1443C29.5795 55.6543 30.0544 55.1652 30.5017 54.6585C30.2488 53.6515 30.0516 52.6273 29.8547 51.6041C29.7349 50.9818 29.6152 50.3598 29.483 49.7421L27.2736 39.6875C27.4946 39.2518 27.7864 38.8336 28.0734 38.4222C28.1892 38.2563 28.3042 38.0915 28.4134 37.9271C28.9325 38.2873 29.321 38.618 29.63 38.8811C30.7615 39.8444 30.8262 39.8995 32.3296 37.1671L32.5632 36.7421C33.0881 35.7866 33.6127 34.8314 34.1663 33.8926C34.6254 33.9235 35.0968 33.9147 35.5634 33.9061C35.7635 33.9023 35.9631 33.8986 36.1605 33.8981L39.7533 33.8926V58.7376H26.804C27.4861 57.8097 28.2962 56.9756 29.1036 56.1443ZM9.10105 52.6086C9.10943 54.6518 9.11781 56.6958 9.09277 58.7376H1.14389V49.8361H9.09277C9.09346 50.76 9.09725 51.6842 9.10105 52.6086ZM17.3606 33.8966C17.3904 33.8957 17.4209 33.8948 17.4521 33.8926C17.8661 33.8593 18.2886 33.8694 18.7082 33.8794C18.8791 33.8835 19.0497 33.8876 19.2191 33.8887L22.393 33.8892C22.589 33.8895 22.7851 33.8934 22.9812 33.8973C23.3735 33.905 23.7658 33.9127 24.1575 33.8926C23.8714 34.1928 23.5703 34.4706 23.2702 34.7475C22.7683 35.2106 22.2687 35.6716 21.8444 36.2321C21.047 36.7223 20.3529 37.4186 19.6883 38.0852L19.6111 38.1627C19.0263 37.44 17.3325 34.7738 17.0539 33.9736C17.1488 33.9026 17.2502 33.8997 17.3606 33.8966ZM30.5017 38.1627C29.1232 37.0378 27.2187 35.1683 25.9985 33.8926C26.4933 33.9444 27.0147 33.9281 27.5285 33.9121C27.7696 33.9046 28.0091 33.8971 28.2436 33.8967L32.9385 33.8926C32.3803 34.7196 31.9053 35.5805 31.4279 36.4579L30.5017 38.1627ZM40.8708 48.6728V33.8926C46.8507 34.6453 48.8554 38.7841 48.8592 44.5136L48.8561 48.6728H40.8708ZM17.925 12.7483C17.6532 11.8432 16.4127 12.1791 16.835 13.0532C15.2476 13.468 13.8914 14.8646 13.5196 16.5029C13.2392 17.7376 13.2325 22.7676 13.4091 24.2123C13.9298 28.4724 17.8373 28.765 21.0185 28.7659L29.8378 28.7673C32.8777 28.7743 35.8272 28.6224 36.6747 24.7607C36.9414 23.5454 36.9542 18.5221 36.758 17.2435C36.0973 12.9388 32.7021 12.742 29.4448 12.7482L21.4829 12.7473C21.0843 12.746 20.4846 12.7862 19.8815 12.8266C19.0962 12.8793 18.3052 12.9323 17.9446 12.8946L17.925 12.7483ZM40.8708 58.7376V49.8361H48.8561V58.7376H40.8708ZM1.14099 44.7991C1.13095 39.3176 2.80067 34.961 8.64838 33.8926C8.77605 33.8862 8.87716 33.8887 9.00193 33.918C9.17407 34.1825 9.12228 43.2614 9.10033 47.1104C9.09598 47.8727 9.0928 48.4298 9.09277 48.6728H1.14389L1.14099 44.7991ZM23.7292 40.2785H26.301C26.5584 42.6705 27.3132 45.5772 28.0554 48.435C28.5888 50.4892 29.1158 52.5182 29.4466 54.3127L29.1946 54.5554C28.1588 55.5517 26.5448 57.1044 25.8189 58.15C25.5734 58.4003 25.3429 58.6611 25.1132 58.9267C24.3547 58.2876 23.5947 57.389 22.8269 56.4811C22.1787 55.7147 21.5249 54.9416 20.8618 54.3127L20.9599 53.786C21.7628 49.4743 22.6938 44.4751 23.7292 40.2785ZM25.5546 47.8911C25.3656 47.6786 25.178 47.6802 24.9267 47.6822L24.8962 47.6825C24.1315 48.1476 24.6494 54.0071 24.6632 54.0304C24.7998 54.2636 25.0499 54.2866 25.2878 54.3084L25.3341 54.3127C26.0557 53.8133 25.8443 48.6694 25.5546 47.8911ZM19.7776 16.5167C21.3477 16.4714 22.6612 17.7294 22.7233 19.3382C22.7853 20.9472 21.5727 22.3075 20.0039 22.3892C18.9732 22.4429 17.994 21.9248 17.4398 21.0323C16.8856 20.1401 16.8421 19.0113 17.3258 18.0767C17.8097 17.1424 18.746 16.5464 19.7776 16.5167ZM29.9612 16.6249C31.5012 16.4275 32.9105 17.5338 33.1257 19.1092C33.341 20.6846 32.2824 22.1453 30.7489 22.3892C29.7367 22.5502 28.718 22.1396 28.0837 21.3151C27.4494 20.4906 27.2976 19.3796 27.6866 18.408C28.0754 17.4366 28.9448 16.7551 29.9612 16.6249ZM20.4385 29.9241C22.4286 29.8953 24.4212 29.9049 26.4132 29.9145C27.4247 29.9194 28.4359 29.9243 29.4466 29.9241C29.4474 30.122 29.4485 30.3198 29.4496 30.5177C29.4537 31.2615 29.4578 32.0057 29.4466 32.7493H20.4385V29.9241ZM40.2429 23.3082C41.3278 21.1082 40.8321 18.3425 37.9571 18.362V23.9785C38.8287 23.9277 39.5008 23.7971 40.2429 23.3082ZM11.9325 17.9729L12.1351 17.9633L12.1983 18.0276C12.2657 18.5822 12.257 19.1591 12.2486 19.7273C12.2458 19.9123 12.243 20.0963 12.2429 20.2783L12.24 23.9786C11.5542 23.8836 11.0752 23.7239 10.5067 23.3082C8.56513 21.4563 9.34363 18.4419 11.9325 17.9729ZM26.7262 2.55941C26.5249 1.5624 25.5707 0.923425 24.5992 1.13482C23.6347 1.34483 23.0169 2.31394 23.2167 3.30363C23.4164 4.29355 24.3588 4.93184 25.3252 4.73212C26.299 4.53125 26.9275 3.55643 26.7262 2.55941ZM29.9611 17.7677C30.9123 17.557 31.8495 18.1791 32.0513 19.1548C32.2531 20.1308 31.6426 21.0889 30.6896 21.2918C29.7421 21.4936 28.8136 20.8722 28.6132 19.9018C28.4125 18.9313 29.0152 17.9773 29.9611 17.7677ZM21.5558 18.9858C21.3071 18.0375 20.3601 17.4713 19.4325 17.7158C18.8234 17.8764 18.3453 18.3601 18.1808 18.9823C18.0163 19.6046 18.1909 20.2695 18.6375 20.7234C19.0841 21.177 19.7343 21.35 20.3398 21.1759C21.2623 20.9107 21.8044 19.9338 21.5558 18.9858ZM25.1135 34.5919C25.4501 34.9557 25.8034 35.3029 26.1566 35.6501C26.6619 36.1466 27.1671 36.6431 27.6233 37.1879C27.1474 37.8106 26.697 38.4432 26.3013 39.1233H23.7294C23.373 38.5216 22.9427 37.9669 22.5152 37.4158C22.4565 37.34 22.3971 37.2636 22.3387 37.1879C22.6731 36.867 23.0263 36.5586 23.3804 36.2495C23.9857 35.7212 24.5934 35.1907 25.1135 34.5919Z" fill="white"/>
<path fill-rule="evenodd" clip-rule="evenodd" d="M22.7233 19.3382C22.6612 17.7294 21.3477 16.4714 19.7776 16.5167C18.746 16.5464 17.8097 17.1424 17.3258 18.0767C16.8421 19.0113 16.8856 20.1401 17.4398 21.0323C17.994 21.9248 18.9732 22.4429 20.0039 22.3892C21.5727 22.3075 22.7853 20.9472 22.7233 19.3382ZM19.4325 17.7158C20.3601 17.4713 21.3071 18.0375 21.5558 18.9858C21.8044 19.9338 21.2623 20.9107 20.3398 21.1759C19.7343 21.35 19.0841 21.177 18.6375 20.7234C18.1909 20.2695 18.0163 19.6046 18.1808 18.9823C18.3453 18.3601 18.8234 17.8764 19.4325 17.7158Z" fill="white"/>
<path d="M24.8962 47.6825C25.1629 47.6807 25.358 47.6701 25.5546 47.8911C25.8443 48.6694 26.0557 53.8133 25.3341 54.3127C25.083 54.2887 24.8087 54.2788 24.6632 54.0304C24.6494 54.0071 24.1315 48.1476 24.8962 47.6825Z" fill="white"/>
</svg>
